<svg width="512" height="512" viewBox="0 0 32 32" xmlns="http://www.w3.org/2000/svg"><circle cx="16" cy="16" r="16" fill="#eeeeee" data-original="#5c6bc0"/><path d="M15.935 4.688c-6.525 0-11.81 5.196-11.81 11.605 0 5.128 3.384 9.477 8.075 11.01.59.109.808-.25.808-.559 0-.276-.01-1.005-.015-1.972-3.285.7-3.979-1.557-3.979-1.557-.537-1.34-1.314-1.698-1.314-1.698-1.07-.719.083-.706.083-.706 1.186.082 1.809 1.196 1.809 1.196 1.052 1.775 2.765 1.262 3.44.966.106-.75.41-1.263.748-1.552-2.624-.29-5.38-1.289-5.38-5.735 0-1.267.458-2.302 1.215-3.114-.133-.292-.531-1.473.104-3.072 0 0 .989-.311 3.247 1.19a11.507 11.507 0 012.953-.391c1.004.006 2.008.133 2.952.391 2.244-1.501 3.233-1.19 3.233-1.19.635 1.6.237 2.779.118 3.072.753.812 1.21 1.847 1.21 3.114 0 4.458-2.76 5.44-5.387 5.725.413.348.797 1.06.797 2.146 0 1.553-.015 2.8-.015 3.179 0 .304.207.667.812.55 4.725-1.52 8.106-5.872 8.106-10.992 0-6.41-5.288-11.606-11.81-11.606z" fill="#3d3d3d" data-original="#26c6da"/></svg>