<svg xmlns="http://www.w3.org/2000/svg" width="512" height="512"><circle xmlns="http://www.w3.org/2000/svg" cx="256" cy="256" fill="#27a737" r="250" data-original="#27a737"/><path xmlns="http://www.w3.org/2000/svg" d="M366.861 141.49A156.89 156.89 0 00256 96c-84.392 0-156.352 69.38-156.352 154.329 0 38.057 16.5 72.856 42.51 99.03l150 150a161.547 161.547 0 003.586 3.484c111.589-17.828 198.523-109.489 209.146-223.324z" fill="url(#prefix__linear-gradient)" opacity=".49" data-original="url(#linear-gradient)"/><path xmlns="http://www.w3.org/2000/svg" d="M256 96c86.366 0 156.352 69.081 156.352 154.331 0 77.9-61.8 152.86-156.352 198.424V397.31c-81.9 0-156.352-66.142-156.352-146.981C99.648 165.079 169.634 96 256 96zm-74.454 110.234v66.142h37.227v36.745c16.38 0 29.782-16.168 29.782-36.745v-66.142zm89.345 0v66.142h37.227v36.745c16.379 0 29.781-16.168 29.781-36.745v-66.142z" fill="#fff" fill-rule="evenodd" data-original="#ffffff"/></svg>