<svg xmlns="http://www.w3.org/2000/svg" width="512" height="512"><circle xmlns="http://www.w3.org/2000/svg" cx="256" cy="256" r="256" fill="#a2c7ff" data-original="#d2f0ff"/><path xmlns="http://www.w3.org/2000/svg" fill="#1e73be" data-original="#1e73be" d="M273.74 398.912L95.492 367.639V144.361l178.248-31.273z"/><path xmlns="http://www.w3.org/2000/svg" d="M184.219 296.977c-25.094 0-41.887-21.516-41.887-43.583 0-22.462 17.6-43.583 42.251-43.583 24.78 0 41.645 22.107 41.645 43.825 0 22.962-17.827 43.341-42.009 43.341zm-24.938-43.583c0 15.319 9.607 28.813 25.061 28.813 15.485 0 25.059-13.858 25.059-28.813 0-14.269-8.973-28.692-25.059-28.692-15.871.001-25.061 13.908-25.061 28.692z" fill="#fff" data-original="#ffffff"/><path fill="#1e73be" data-original="#1e73be" d="M358.985 187.135h-76.452v81.75l76.452-64.211zm-76.452 91.846v45.883h76.452V214.77l-76.452 64.211z" xmlns="http://www.w3.org/2000/svg"/></svg>